<?xml version="1.0" standalone="no"?>
<!DOCTYPE svg PUBLIC "-//W3C//DTD SVG 20010904//EN"
 "http://www.w3.org/TR/2001/REC-SVG-20010904/DTD/svg10.dtd">
<svg version="1.0" xmlns="http://www.w3.org/2000/svg"
 width="300.000000pt" height="225.000000pt" viewBox="0 0 300.000000 225.000000"
 preserveAspectRatio="xMidYMid meet">

<g transform="translate(0.000000,225.000000) scale(0.100000,-0.100000)"
stroke="none">
<path d="M0 2197 c0 -35 85 -230 483 -1102 l482 -1060 165 -3 165 -2 51 127
c28 71 113 275 190 455 l139 328 278 0 c219 0 278 -3 274 -12 -44 -108 -304
-716 -322 -753 -32 -70 -55 -126 -55 -136 0 -14 164 -11 183 3 23 17 947 2115
947 2150 0 38 -25 48 -117 48 l-79 0 -127 -297 c-70 -164 -166 -392 -215 -508
l-89 -210 -278 -3 c-261 -2 -277 -1 -272 15 2 10 87 212 187 448 101 237 193
458 206 493 l24 62 -118 0 c-79 0 -124 -4 -135 -12 -9 -7 -105 -228 -212 -491
-107 -262 -198 -483 -202 -491 -5 -10 -85 153 -238 487 l-230 502 -543 3 -542
2 0 -43z"/>
</g>
</svg>
